<svg width="40" height="40" viewBox="0 0 40 40" fill="none" xmlns="http://www.w3.org/2000/svg">
<path d="M4.375 20.95C4.375 20.3437 4.375 19.7312 4.375 19.125C4.39375 19.0187 4.41875 18.9375 4.4375 18.8312C4.60625 17.8687 4.6875 16.8625 4.94375 15.9375C7.3125 7.38123 16.1625 2.51873 24.6125 5.11873C32.4125 7.50623 37.1125 15.5812 35.2 23.5312C33.8375 29.2375 30.25 33.0125 24.7125 34.9187C23.8125 35.2312 22.8687 35.3812 21.925 35.5875C21.925 31.4375 21.925 27.3875 21.925 23.2812C23.1812 23.2812 24.4188 23.2812 25.6562 23.2812C25.8438 21.8125 26.0312 20.3875 26.225 18.9187C24.775 18.9187 23.35 18.9187 21.925 18.9187C21.925 17.8312 21.8813 16.7812 21.9438 15.75C22.0063 14.6187 22.5938 14.0937 23.725 14.05C24.5 14.0312 25.275 14.0312 26.05 14.0062C26.1562 14.0062 26.2625 13.9875 26.3875 13.9875C26.3875 12.7312 26.3875 11.5125 26.3875 10.2937C26.3875 10.2312 26.2625 10.0812 26.175 10.0812C24.9375 10.0187 23.7 9.93748 22.4625 9.95623C21.2875 9.97498 20.2 10.375 19.275 11.15C18.0812 12.175 17.5562 13.5187 17.4688 15.05C17.4062 16.2062 17.425 17.375 17.425 18.5312C17.425 18.6562 17.425 18.7625 17.425 18.9312C16.1437 18.9312 14.9313 18.9312 13.6938 18.9312C13.6938 20.4 13.6938 21.825 13.6938 23.2937C14.95 23.2937 16.1875 23.2937 17.4062 23.2937C17.4062 27.3437 17.4062 31.3687 17.4062 35.375C17.3625 35.375 17.325 35.3937 17.3 35.375C15.9375 35.1437 14.6187 34.725 13.3562 34.1187C11.0062 32.9875 9.0375 31.3937 7.4875 29.2937C5.9875 27.3625 5.025 25.1812 4.625 22.75C4.51875 22.1625 4.45625 21.5562 4.375 20.95Z" fill="#666666"/>
</svg>
