<svg width="32" height="32" viewBox="0 0 32 32" fill="none" xmlns="http://www.w3.org/2000/svg">
<path d="M0.375 16C0.375 7.34375 7.40625 0.375 16 0.375C24.6562 0.375 31.625 7.40625 31.625 16C31.625 24.6562 24.5938 31.625 16 31.625C7.34375 31.625 0.375 24.5938 0.375 16ZM6.3625 16C6.3625 17.175 6.3 18.3438 6.3625 19.5812C6.3625 20.0375 6.3625 20.4938 6.425 20.95C6.6875 22.775 7.6 24.2687 9.35625 25.05C10.2688 25.4375 11.1812 25.6375 12.1562 25.6375C14.5625 25.6375 17.0375 25.6375 19.45 25.6375C19.9688 25.6375 20.4938 25.575 21.0125 25.5063C22.9625 25.1812 24.4625 24.2062 25.1812 22.25C25.5063 21.4688 25.6375 20.625 25.6375 19.775C25.6375 17.3687 25.6375 14.9562 25.6375 12.55C25.6375 12.0937 25.6375 11.6375 25.575 11.1812C25.25 9.23125 24.275 7.73125 22.3875 6.95C21.6063 6.625 20.7625 6.49375 19.9125 6.49375C17.3062 6.49375 14.7063 6.49375 12.1625 6.49375C11.1188 6.49375 10.0813 6.6875 9.1 7.2125C7.34375 8.1875 6.5625 9.75 6.43125 11.7C6.3 13.0687 6.3625 14.5688 6.3625 16Z" fill="#666666"/>
<path d="M16 8.24999C17.3 8.24999 18.5375 8.24999 19.8437 8.24999C20.2312 8.24999 20.6875 8.31249 21.0812 8.38124C22.6437 8.70624 23.6187 9.88124 23.8187 11.4437C23.8812 11.7687 23.8812 12.1625 23.8812 12.4875C23.8812 14.8312 23.8812 17.2375 23.8812 19.5812C23.8812 20.1687 23.8187 20.7562 23.6187 21.3375C23.1625 22.7687 22.0562 23.55 20.625 23.6187C18.8 23.75 16.9812 23.6812 15.1562 23.75C13.9187 23.75 12.75 23.75 11.5125 23.6875C9.68747 23.5562 8.44998 22.3187 8.19373 20.5C8.13123 20.175 8.13123 19.85 8.13123 19.525C8.13123 17.1187 8.13123 14.7062 8.13123 12.3C8.13123 11.7125 8.26248 11.1312 8.39373 10.6062C8.84998 9.17499 9.95623 8.45624 11.3875 8.32499C12.625 8.26249 13.925 8.26249 15.1625 8.19374C15.4812 8.18749 15.7375 8.24999 16 8.24999ZM16 10.925C13.1375 10.925 10.925 13.2062 10.925 16.0687C10.925 18.8687 13.2062 21.15 16.0687 21.0812C18.8687 21.0812 21.0812 18.8 21.0812 16.0062C21.0812 13.2125 18.8 10.925 16 10.925ZM21.075 11.9625C21.6625 11.9625 22.1187 11.5062 22.1187 10.9875C22.1187 10.4 21.6625 9.94374 21.1437 9.94374C20.5562 9.94374 20.1 10.4 20.1 10.9875C20.1 11.5062 20.5562 11.9625 21.075 11.9625Z" fill="#666666"/>
<path d="M12.7438 16C12.7438 14.175 14.175 12.7438 16 12.6813C17.825 12.6813 19.2563 14.1125 19.3188 15.9375C19.3188 17.7625 17.8875 19.1938 16.0625 19.2563C14.175 19.3188 12.7438 17.825 12.7438 16Z" fill="#666666"/>
</svg>
