<svg width="40" height="40" viewBox="0 0 40 40" fill="none" xmlns="http://www.w3.org/2000/svg">
<path d="M19.025 4.375C19.675 4.375 20.325 4.375 20.975 4.375C21.0375 4.375 21.1062 4.4375 21.2375 4.4375C23.6437 4.63125 25.925 5.35 28.0063 6.5875C32.0438 9.0625 34.5187 12.6437 35.3625 17.3312C35.4937 17.9187 35.4937 18.5062 35.625 19.025C35.625 19.675 35.625 20.325 35.625 20.975C35.625 21.1688 35.5625 21.3625 35.5625 21.5625C35.2375 24.625 34.1312 27.425 32.1125 29.8312C29.6375 32.825 26.5125 34.65 22.7375 35.3625C22.15 35.4937 21.5625 35.4937 20.9813 35.625C20.3313 35.625 19.6812 35.625 19.0312 35.625C18.6438 35.5625 18.25 35.5625 17.8563 35.4938C14.9938 35.1063 12.3875 33.9938 10.1062 32.1063C7.175 29.7 5.2875 26.5063 4.6375 22.7313C4.50625 22.1438 4.44375 21.5625 4.375 20.975C4.375 20.325 4.375 19.675 4.375 19.025C4.375 18.8312 4.4375 18.6375 4.4375 18.4375C4.825 15.1187 6.0625 12.1875 8.28125 9.7125C10.6875 6.98125 13.75 5.2875 17.3312 4.6375C17.9187 4.50625 18.4375 4.4375 19.025 4.375ZM17.5938 28.0063C18.8313 28.0063 20.1312 28.0063 21.3687 28.0063C21.3687 27.875 21.3687 27.7437 21.3687 27.6187C21.3687 26.1187 21.3687 24.625 21.3687 23.125C21.3687 22.475 21.3687 21.8875 21.3687 21.2375C21.3687 20.5875 21.7625 20.0625 22.2812 19.675C23.3875 18.8937 24.8188 19.35 25.2125 20.65C25.3438 21.0375 25.4062 21.5625 25.4062 21.95C25.4062 23.8375 25.4062 25.725 25.4062 27.6812C25.4062 27.8125 25.4062 27.875 25.4062 28.0063C26.7062 28.0063 27.9438 28.0063 29.1812 28.0063C29.1812 27.875 29.1812 27.8125 29.1812 27.6812C29.1812 25.6625 29.1812 23.5812 29.1812 21.5625C29.1812 21.1063 29.1812 20.65 29.1187 20.1938C28.8562 17.9813 27.4937 16.55 25.3438 16.2875C23.7812 16.0938 22.4813 16.55 21.5688 17.9125C21.5063 17.975 21.5063 17.975 21.375 18.1063C21.375 17.5188 21.375 17.0625 21.375 16.5438C20.075 16.5438 18.8375 16.5438 17.6 16.5438C17.5938 20.3875 17.5938 24.1688 17.5938 28.0063ZM11.6687 16.55C11.6687 20.3937 11.6687 24.1688 11.6687 28.0063C12.9688 28.0063 14.2063 28.0063 15.4438 28.0063C15.4438 27.875 15.4438 27.7437 15.4438 27.6187C15.4438 24.2312 15.4438 20.7812 15.4438 17.4C15.4438 17.2062 15.4438 17.075 15.4438 16.8813C15.4438 16.6188 15.3812 16.6187 15.1187 16.6187C14.1437 16.6187 13.1 16.6187 12.125 16.6187C11.9938 16.55 11.8625 16.55 11.6687 16.55ZM11.4062 13.0312C11.4062 14.2063 12.3187 14.9812 13.5562 14.9812C14.7937 14.9812 15.7063 14.1375 15.7063 13.0312C15.7063 11.8562 14.7937 11.0125 13.5562 11.0813C12.3187 11.0125 11.4062 11.8625 11.4062 13.0312Z" fill="#666666"/>
</svg>
