<svg width="97" height="112" viewBox="0 0 97 112" fill="none" xmlns="http://www.w3.org/2000/svg">
<path d="M4.43334 70.1333H0.966675V67.6H11.0778V70.1333H7.63334V78.8889H4.43334V70.1333Z" fill="#5552E9"/>
<path d="M15.0111 77.7444C14.0778 76.8333 13.6111 75.5333 13.6111 73.8555V67.6H16.8V73.7666C16.8 75.5778 17.5111 76.4777 18.9445 76.4777C20.3667 76.4777 21.0778 75.5778 21.0778 73.7666V67.6H24.2223V73.8555C24.2223 75.5333 23.7556 76.8333 22.8223 77.7444C21.8889 78.6555 20.5889 79.1111 18.9111 79.1111C17.2445 79.1222 15.9334 78.6666 15.0111 77.7444Z" fill="#5552E9"/>
<path d="M14.7222 83.6555V94.9555H11.5222V90.5444H7.16667V94.9555H3.97778V83.6555H7.16667V87.9H11.5222V83.6555H14.7222Z" fill="#5552E9"/>
<path d="M21.7778 83.6555H18.5889V94.9444H21.7778V83.6555Z" fill="#5552E9"/>
<path d="M26.9778 94.8333C26.1223 94.6111 25.4223 94.3111 24.8778 93.9333L25.9223 91.5778C26.4223 91.9111 27.0111 92.1778 27.6778 92.3889C28.3445 92.5889 29 92.7 29.6445 92.7C30.8667 92.7 31.4889 92.3889 31.4889 91.7778C31.4889 91.4556 31.3111 91.2111 30.9667 91.0556C30.6223 90.9 30.0556 90.7333 29.2778 90.5667C28.4334 90.3889 27.7223 90.1889 27.1445 89.9778C26.5778 89.7667 26.0889 89.4333 25.6778 88.9667C25.2667 88.5 25.0667 87.8778 25.0667 87.1C25.0667 86.4111 25.2556 85.7889 25.6334 85.2333C26.0111 84.6778 26.5667 84.2445 27.3223 83.9222C28.0667 83.6 28.9889 83.4333 30.0778 83.4333C30.8223 83.4333 31.5556 83.5111 32.2667 83.6889C32.9889 83.8556 33.6223 84.1 34.1667 84.4222L33.1778 86.7889C32.1 86.2111 31.0556 85.9222 30.0445 85.9222C29.4111 85.9222 28.9445 86.0111 28.6556 86.2C28.3667 86.3889 28.2223 86.6333 28.2223 86.9333C28.2223 87.2333 28.3889 87.4556 28.7334 87.6111C29.0778 87.7667 29.6334 87.9222 30.4 88.0778C31.2556 88.2556 31.9778 88.4556 32.5334 88.6667C33.1 88.8778 33.5889 89.2111 34 89.6667C34.4111 90.1222 34.6223 90.7445 34.6223 91.5333C34.6223 92.2111 34.4334 92.8222 34.0556 93.3778C33.6778 93.9222 33.1111 94.3667 32.3667 94.6889C31.6111 95.0222 30.7 95.1778 29.6223 95.1778C28.7223 95.1778 27.8334 95.0667 26.9778 94.8333Z" fill="#5552E9"/>
<path d="M39.9667 86.1889H36.4889V83.6555H46.6111V86.1889H43.1556V94.9555H39.9667V86.1889Z" fill="#5552E9"/>
<path d="M51.7333 94.4222C50.7777 93.9222 50.0333 93.2222 49.4889 92.3222C48.9444 91.4333 48.6777 90.4222 48.6777 89.3111C48.6777 88.1889 48.9444 87.1889 49.4889 86.3C50.0333 85.4111 50.7777 84.7111 51.7333 84.2C52.6889 83.7 53.7555 83.4445 54.9555 83.4445C56.1444 83.4445 57.2222 83.7 58.1778 84.2C59.1333 84.7111 59.8778 85.4 60.4222 86.3C60.9667 87.1889 61.2334 88.2 61.2334 89.3111C61.2334 90.4333 60.9667 91.4333 60.4222 92.3222C59.8778 93.2111 59.1333 93.9111 58.1778 94.4222C57.2222 94.9333 56.1555 95.1778 54.9555 95.1778C53.7555 95.1778 52.6778 94.9222 51.7333 94.4222ZM56.5 92.1333C56.9667 91.8667 57.3333 91.4889 57.6 91C57.8667 90.5111 58 89.9445 58 89.3111C58 88.6778 57.8667 88.1111 57.6 87.6222C57.3333 87.1333 56.9667 86.7556 56.5 86.4889C56.0333 86.2222 55.5222 86.0889 54.9555 86.0889C54.3889 86.0889 53.8667 86.2222 53.4111 86.4889C52.9444 86.7556 52.5778 87.1333 52.3111 87.6222C52.0444 88.1111 51.9111 88.6778 51.9111 89.3111C51.9111 89.9445 52.0444 90.5111 52.3111 91C52.5778 91.4889 52.9444 91.8667 53.4111 92.1333C53.8778 92.4 54.3889 92.5333 54.9555 92.5333C55.5222 92.5333 56.0333 92.4 56.5 92.1333Z" fill="#5552E9"/>
<path d="M69.4444 91.9555H67.7V94.9555H64.5111V83.6555H69.6778C70.7 83.6555 71.5889 83.8222 72.3333 84.1666C73.0889 84.5 73.6667 84.9888 74.0778 85.6222C74.4889 86.2555 74.6889 86.9888 74.6889 87.8444C74.6889 88.6666 74.5 89.3777 74.1111 89.9777C73.7333 90.5889 73.1889 91.0666 72.4778 91.4L74.9111 94.9444H71.4889L69.4444 91.9555ZM70.9667 86.6111C70.6333 86.3222 70.1333 86.1777 69.4778 86.1777H67.7V89.4889H69.4778C70.1333 89.4889 70.6333 89.3444 70.9667 89.0666C71.3 88.7777 71.4667 88.3777 71.4667 87.8444C71.4667 87.3111 71.3 86.9 70.9667 86.6111Z" fill="#5552E9"/>
<path d="M81.2555 83.6555H78.0667V94.9444H81.2555V83.6555Z" fill="#5552E9"/>
<path d="M92.7111 92.7555H87.9333L87.0444 94.9444H83.7889L88.7778 83.6555H91.9222L96.9222 94.9444H93.6L92.7111 92.7555ZM91.7778 90.4L90.3222 86.7888L88.8667 90.4H91.7778Z" fill="#5552E9"/>
<path d="M7.44444 99.9445H4.25555V111.233H7.44444V99.9445Z" fill="#FC91F5"/>
<path d="M21.5334 111.233L21.5 105.244L18.6 110.122H17.1778L14.2889 105.411V111.233H11.3445V99.9445H13.9667L17.9334 106.456L21.8111 99.9445H24.4445L24.4667 111.233H21.5334Z" fill="#FC91F5"/>
<path d="M36.1667 100.444C36.9223 100.778 37.5 101.267 37.9111 101.9C38.3223 102.533 38.5223 103.267 38.5223 104.122C38.5223 104.967 38.3223 105.711 37.9111 106.333C37.5 106.956 36.9223 107.433 36.1667 107.778C35.4111 108.111 34.5223 108.289 33.5 108.289H31.5334V111.244H28.3445V99.9445H33.5111C34.5223 99.9445 35.4111 100.111 36.1667 100.444ZM34.8 105.333C35.1334 105.044 35.3 104.644 35.3 104.111C35.3 103.589 35.1334 103.178 34.8 102.889C34.4667 102.6 33.9667 102.456 33.3111 102.456H31.5334V105.767H33.3111C33.9667 105.767 34.4667 105.622 34.8 105.333Z" fill="#FC91F5"/>
<path d="M44.3222 110.7C43.3667 110.2 42.6222 109.5 42.0778 108.6C41.5333 107.711 41.2667 106.7 41.2667 105.589C41.2667 104.467 41.5333 103.467 42.0778 102.578C42.6222 101.689 43.3667 100.989 44.3222 100.478C45.2778 99.9778 46.3445 99.7222 47.5445 99.7222C48.7333 99.7222 49.8111 99.9778 50.7667 100.478C51.7222 100.989 52.4667 101.678 53.0111 102.578C53.5556 103.467 53.8223 104.478 53.8223 105.589C53.8223 106.711 53.5556 107.711 53.0111 108.6C52.4667 109.489 51.7222 110.189 50.7667 110.7C49.8111 111.211 48.7445 111.456 47.5445 111.456C46.3445 111.456 45.2667 111.211 44.3222 110.7ZM49.0889 108.411C49.5556 108.144 49.9222 107.767 50.1889 107.278C50.4556 106.789 50.5889 106.222 50.5889 105.589C50.5889 104.956 50.4556 104.389 50.1889 103.9C49.9222 103.411 49.5556 103.033 49.0889 102.767C48.6222 102.5 48.1111 102.367 47.5445 102.367C46.9778 102.367 46.4556 102.5 46 102.767C45.5333 103.033 45.1667 103.411 44.9 103.9C44.6333 104.389 44.5 104.956 44.5 105.589C44.5 106.222 44.6333 106.789 44.9 107.278C45.1667 107.767 45.5333 108.144 46 108.411C46.4667 108.678 46.9778 108.811 47.5445 108.811C48.1111 108.811 48.6222 108.678 49.0889 108.411Z" fill="#FC91F5"/>
<path d="M62.0333 108.233H60.2889V111.233H57.1V99.9445H62.2666C63.2889 99.9445 64.1778 100.111 64.9222 100.456C65.6778 100.789 66.2555 101.278 66.6666 101.911C67.0778 102.544 67.2778 103.278 67.2778 104.133C67.2778 104.956 67.0889 105.667 66.7 106.267C66.3222 106.878 65.7778 107.356 65.0666 107.689L67.5 111.233H64.0778L62.0333 108.233ZM63.5555 102.889C63.2222 102.6 62.7222 102.456 62.0666 102.456H60.2889V105.767H62.0666C62.7222 105.767 63.2222 105.622 63.5555 105.344C63.8889 105.056 64.0555 104.656 64.0555 104.122C64.0555 103.589 63.8889 103.189 63.5555 102.889Z" fill="#FC91F5"/>
<path d="M72.9 102.478H69.4222V99.9445H79.5445V102.478H76.0889V111.233H72.9V102.478Z" fill="#FC91F5"/>
<path d="M89.3445 109.044H84.5667L83.6778 111.233H80.4222L85.4111 99.9445H88.5556L93.5556 111.233H90.2334L89.3445 109.044ZM88.4111 106.689L86.9556 103.078L85.5 106.689H88.4111Z" fill="#FC91F5"/>
<path d="M28.9444 47.7778C29.6555 47.5778 30.0333 47.0667 30.4889 46.7C33.1333 44.6222 35.9555 42.8222 39.0222 41.4444C41.3666 40.3889 43.7889 39.6778 46.4333 40.0333C49.3 40.4222 50.5 41.9444 50.4889 44.8333C50.4777 47.1 49.7333 49.2111 48.9889 51.3222C48.2666 53.3889 47.7555 55.5111 47.8778 57.7222C47.9444 58.9889 48.6444 59.5 49.9222 59.3889C50.8666 59.3 51.7111 58.9222 52.5111 58.4667C56.0222 56.4444 59 53.7778 61.8 50.8889C63.1444 49.4889 64.4889 48.0889 65.8222 46.6778C67 45.4222 67.7 43.8555 68.6111 42.4222C69.4222 41.1444 70.3 39.9333 71.3444 38.8444C72.5555 37.5778 74.3889 37.5444 75.6555 38.7556C76.6 39.6555 76.6444 41.4667 75.6444 42.6889C74.0666 44.6333 72.7 46.7333 71.4444 48.8889C69.9 51.5333 68.4777 54.2333 67.3555 57.0889C67.0889 57.7555 66.8444 58.4555 66.8889 59.2C66.9777 60.4333 67.7111 60.9889 68.9111 60.7333C70.0666 60.4778 71.1 59.9222 72.0889 59.3111C76.5888 56.5444 80.4888 53.0555 84.1 49.2333C85.1111 48.1556 86.1333 47.0778 87.3444 46.2222C88.1555 45.6555 89.2555 45.6444 89.9444 46.1555C90.6222 46.6555 90.8 47.5889 90.4111 48.6111C90.0444 49.5555 89.3999 50.3222 88.7 51.0333C85.1111 54.6667 81.3 58.0333 77.0666 60.9111C74.7333 62.4889 72.3111 63.9333 69.6777 64.9778C68.6 65.4 67.4777 65.7333 66.2888 65.7889C63.0555 65.9333 60.6555 63.0667 60.8111 60.1C60.8555 59.3556 60.9222 58.6111 61 57.7222C60.2333 58.3333 59.5555 58.8667 58.8889 59.4C56.4 61.3555 53.7777 63.1 50.7555 64.1667C48.5555 64.9333 46.3333 64.9556 44.2222 63.9444C41.8778 62.8222 41.2555 60.6444 41.2333 58.2889C41.2111 56.1222 41.6 54.0111 42.4777 51.9778C43.1222 50.4667 43.6444 48.8889 43.7222 47.2111C43.7666 46.1889 43.5 45.8778 42.4555 45.7555C41.1222 45.6111 39.9778 46.1333 38.8444 46.7C36.4555 47.8889 34.3444 49.4778 32.3666 51.2444C29.8222 53.5111 27.4333 55.9111 25.5333 58.7667C24.9889 59.5778 24.6333 60.4889 24.2222 61.3667C23.8666 62.1222 23.4333 62.8222 22.7555 63.3333C20.6 64.9556 18.2 64.0555 17.7222 61.3889C17.4778 60.0222 17.7555 58.6778 18.1222 57.3667C18.8667 54.7 19.7778 52.0889 20.8444 49.5444C22.1778 46.3444 23.5778 43.1667 25.1333 40.0667C25.8 38.7222 26.4778 37.3778 27.1555 36.0333C27.3778 35.5889 27.3111 35.3778 26.7666 35.3444C24.2889 35.2 21.8222 35.0222 19.3889 34.5222C18.9444 34.4333 18.7778 34.7556 18.6 35.0333C17.2111 37.1111 15.9 39.2444 14.6889 41.4222C12.9889 44.4555 11.5 47.5889 10.2444 50.8222C9.15554 53.6444 8.09999 56.5 7.74443 59.5444C7.66666 60.2111 7.68888 60.8889 7.99999 61.5333C8.59999 62.8111 8.19999 64.3 7.13332 64.9555C5.86666 65.7222 4.13332 65.4111 3.24443 64.2778C2.42221 63.2222 2.23332 61.9889 2.27777 60.7C2.38888 57.6222 3.29999 54.7333 4.34443 51.8778C5.33332 49.1667 6.47777 46.5111 7.73332 43.9111C9.36666 40.5222 11.1555 37.2222 13.1 34C13.1889 33.8556 13.2667 33.7 13.3667 33.5667C13.7222 33.0667 13.6889 32.8 13 32.6444C11.6555 32.3444 10.4 31.8222 9.42221 30.8111C8.28888 29.6444 8.03332 28.3 8.7111 27.1111C9.49999 25.7 10.7444 25.1778 12.4333 25.5667C13.1222 25.7222 13.7667 26 14.3111 26.4889C14.8667 27 15.4667 27.4333 16.2222 27.6556C16.7222 27.8 17.0111 27.7444 17.3 27.2667C18.5333 25.2333 19.8444 23.2556 21.2666 21.3444C23.4111 18.4889 25.7111 15.7667 28.0778 13.1C29.2444 11.7889 30.4333 10.5222 32.0111 9.68889C33.0444 9.14444 34.0222 9.28889 34.9666 9.91111C35.9444 10.5444 36.3333 11.4333 36.1778 12.5889C36.0222 13.7111 35.5444 14.6556 34.5889 15.2556C32.7666 16.4 31.3666 17.9667 29.9778 19.5556C27.5555 22.3111 25.2666 25.1667 23.1666 28.1778C22.3444 29.3556 22.4111 29.5333 23.8333 29.6667C25.7 29.8333 27.5666 29.9444 29.4222 30.1222C30.1222 30.1889 30.5666 29.9556 30.9 29.3444C32.6 26.2556 34.5333 23.3222 36.5555 20.4444C40.6222 14.6778 45 9.17778 50.5889 4.77778C52.8889 2.96667 55.3111 1.36667 58.2111 0.633334C60.2 0.133334 62.0555 0.344445 63.7 1.7C65.5333 3.21111 65.7111 5.15556 65.3444 7.31111C64.3 13.3333 61.1 18.1778 57.0555 22.5667C54.6555 25.1667 52 27.4556 48.9889 29.3222C46.5222 30.8556 43.9222 32.0889 41.2111 33.1222C39.2333 33.8778 37.2333 34.5222 35.2111 35.1333C34.6889 35.2889 34.4333 35.7111 34.2222 36.1333C32.8333 38.9444 31.5555 41.7889 30.3222 44.6667C29.8444 45.6444 29.2778 46.6111 28.9444 47.7778ZM37.8444 28.7222C38.2778 28.5889 38.5555 28.5222 38.8222 28.4111C42.4444 26.9556 45.8111 25.0556 48.9 22.6556C51.0889 20.9444 53.0111 18.9556 54.8333 16.8778C56.5 14.9778 58 12.9444 59.1111 10.6667C59.6222 9.62222 60.0666 8.53333 60.2 7.36667C60.3111 6.36667 59.8 5.85556 58.7888 5.91111C58.2777 5.93333 57.7889 6.05555 57.3222 6.28889C56.2222 6.82222 55.2333 7.52222 54.3222 8.33333C52.1333 10.2667 50.1333 12.3667 48.2222 14.5667C44.8444 18.4778 41.6777 22.5444 38.8666 26.9C38.5222 27.4333 38.1111 27.9444 37.8444 28.7222Z" fill="#5552E9"/>
<path d="M82.9778 24.4C82.9556 27.2 80.4222 28.6667 78.3889 29.0222C77.3889 29.2 76.5222 28.6222 76.1333 27.6889C75.0445 25.1 75.5333 23.0778 77.5889 21.4667C78.6889 20.6111 80.8111 20.3778 82.0111 21.3445C83.0445 22.1667 83.0889 23.2667 82.9778 24.4Z" fill="#FC91F5"/>
</svg>
