<svg width="120" height="120" viewBox="0 0 120 120" fill="none" xmlns="http://www.w3.org/2000/svg">
<path d="M15.4333 74.1333H11.9667V71.6H22.0778V74.1333H18.6333V82.8889H15.4333V74.1333Z" fill="#5552E9"/>
<path d="M26.0111 81.7444C25.0778 80.8333 24.6111 79.5333 24.6111 77.8555V71.6H27.8V77.7666C27.8 79.5778 28.5111 80.4777 29.9445 80.4777C31.3667 80.4777 32.0778 79.5778 32.0778 77.7666V71.6H35.2223V77.8555C35.2223 79.5333 34.7556 80.8333 33.8223 81.7444C32.8889 82.6555 31.5889 83.1111 29.9111 83.1111C28.2445 83.1222 26.9334 82.6666 26.0111 81.7444Z" fill="#5552E9"/>
<path d="M25.7222 87.6555V98.9555H22.5222V94.5444H18.1667V98.9555H14.9778V87.6555H18.1667V91.9H22.5222V87.6555H25.7222Z" fill="#5552E9"/>
<path d="M32.7778 87.6555H29.5889V98.9444H32.7778V87.6555Z" fill="#5552E9"/>
<path d="M37.9778 98.8333C37.1223 98.6111 36.4223 98.3111 35.8778 97.9333L36.9223 95.5778C37.4223 95.9111 38.0111 96.1778 38.6778 96.3889C39.3445 96.5889 40 96.7 40.6445 96.7C41.8667 96.7 42.4889 96.3889 42.4889 95.7778C42.4889 95.4556 42.3111 95.2111 41.9667 95.0556C41.6223 94.9 41.0556 94.7333 40.2778 94.5667C39.4334 94.3889 38.7223 94.1889 38.1445 93.9778C37.5778 93.7667 37.0889 93.4333 36.6778 92.9667C36.2667 92.5 36.0667 91.8778 36.0667 91.1C36.0667 90.4111 36.2556 89.7889 36.6334 89.2333C37.0111 88.6778 37.5667 88.2445 38.3223 87.9222C39.0667 87.6 39.9889 87.4333 41.0778 87.4333C41.8223 87.4333 42.5556 87.5111 43.2667 87.6889C43.9889 87.8556 44.6223 88.1 45.1667 88.4222L44.1778 90.7889C43.1 90.2111 42.0556 89.9222 41.0445 89.9222C40.4111 89.9222 39.9445 90.0111 39.6556 90.2C39.3667 90.3889 39.2223 90.6333 39.2223 90.9333C39.2223 91.2333 39.3889 91.4556 39.7334 91.6111C40.0778 91.7667 40.6334 91.9222 41.4 92.0778C42.2556 92.2556 42.9778 92.4556 43.5334 92.6667C44.1 92.8778 44.5889 93.2111 45 93.6667C45.4111 94.1222 45.6223 94.7445 45.6223 95.5333C45.6223 96.2111 45.4334 96.8222 45.0556 97.3778C44.6778 97.9222 44.1111 98.3667 43.3667 98.6889C42.6111 99.0222 41.7 99.1778 40.6223 99.1778C39.7223 99.1778 38.8334 99.0667 37.9778 98.8333Z" fill="#5552E9"/>
<path d="M50.9667 90.1889H47.4889V87.6555H57.6111V90.1889H54.1556V98.9555H50.9667V90.1889Z" fill="#5552E9"/>
<path d="M62.7333 98.4222C61.7777 97.9222 61.0333 97.2222 60.4889 96.3222C59.9444 95.4333 59.6777 94.4222 59.6777 93.3111C59.6777 92.1889 59.9444 91.1889 60.4889 90.3C61.0333 89.4111 61.7777 88.7111 62.7333 88.2C63.6889 87.7 64.7555 87.4445 65.9555 87.4445C67.1444 87.4445 68.2222 87.7 69.1778 88.2C70.1333 88.7111 70.8778 89.4 71.4222 90.3C71.9667 91.1889 72.2334 92.2 72.2334 93.3111C72.2334 94.4333 71.9667 95.4333 71.4222 96.3222C70.8778 97.2111 70.1333 97.9111 69.1778 98.4222C68.2222 98.9333 67.1555 99.1778 65.9555 99.1778C64.7555 99.1778 63.6778 98.9222 62.7333 98.4222ZM67.5 96.1333C67.9667 95.8667 68.3333 95.4889 68.6 95C68.8667 94.5111 69 93.9445 69 93.3111C69 92.6778 68.8667 92.1111 68.6 91.6222C68.3333 91.1333 67.9667 90.7556 67.5 90.4889C67.0333 90.2222 66.5222 90.0889 65.9555 90.0889C65.3889 90.0889 64.8667 90.2222 64.4111 90.4889C63.9444 90.7556 63.5778 91.1333 63.3111 91.6222C63.0444 92.1111 62.9111 92.6778 62.9111 93.3111C62.9111 93.9445 63.0444 94.5111 63.3111 95C63.5778 95.4889 63.9444 95.8667 64.4111 96.1333C64.8778 96.4 65.3889 96.5333 65.9555 96.5333C66.5222 96.5333 67.0333 96.4 67.5 96.1333Z" fill="#5552E9"/>
<path d="M80.4444 95.9555H78.7V98.9555H75.5111V87.6555H80.6778C81.7 87.6555 82.5889 87.8222 83.3333 88.1666C84.0889 88.5 84.6667 88.9888 85.0778 89.6222C85.4889 90.2555 85.6889 90.9888 85.6889 91.8444C85.6889 92.6666 85.5 93.3777 85.1111 93.9777C84.7333 94.5889 84.1889 95.0666 83.4778 95.4L85.9111 98.9444H82.4889L80.4444 95.9555ZM81.9667 90.6111C81.6333 90.3222 81.1333 90.1777 80.4778 90.1777H78.7V93.4889H80.4778C81.1333 93.4889 81.6333 93.3444 81.9667 93.0666C82.3 92.7777 82.4667 92.3777 82.4667 91.8444C82.4667 91.3111 82.3 90.9 81.9667 90.6111Z" fill="#5552E9"/>
<path d="M92.2555 87.6555H89.0667V98.9444H92.2555V87.6555Z" fill="#5552E9"/>
<path d="M103.711 96.7555H98.9333L98.0444 98.9444H94.7889L99.7778 87.6555H102.922L107.922 98.9444H104.6L103.711 96.7555ZM102.778 94.4L101.322 90.7888L99.8667 94.4H102.778Z" fill="#5552E9"/>
<path d="M18.4444 103.944H15.2556V115.233H18.4444V103.944Z" fill="#FC91F5"/>
<path d="M32.5334 115.233L32.5 109.244L29.6 114.122H28.1778L25.2889 109.411V115.233H22.3445V103.944H24.9667L28.9334 110.456L32.8111 103.944H35.4445L35.4667 115.233H32.5334Z" fill="#FC91F5"/>
<path d="M47.1667 104.444C47.9223 104.778 48.5 105.267 48.9111 105.9C49.3223 106.533 49.5223 107.267 49.5223 108.122C49.5223 108.967 49.3223 109.711 48.9111 110.333C48.5 110.956 47.9223 111.433 47.1667 111.778C46.4111 112.111 45.5223 112.289 44.5 112.289H42.5334V115.244H39.3445V103.944H44.5111C45.5223 103.944 46.4111 104.111 47.1667 104.444ZM45.8 109.333C46.1334 109.044 46.3 108.644 46.3 108.111C46.3 107.589 46.1334 107.178 45.8 106.889C45.4667 106.6 44.9667 106.456 44.3111 106.456H42.5334V109.767H44.3111C44.9667 109.767 45.4667 109.622 45.8 109.333Z" fill="#FC91F5"/>
<path d="M55.3222 114.7C54.3667 114.2 53.6222 113.5 53.0778 112.6C52.5333 111.711 52.2667 110.7 52.2667 109.589C52.2667 108.467 52.5333 107.467 53.0778 106.578C53.6222 105.689 54.3667 104.989 55.3222 104.478C56.2778 103.978 57.3445 103.722 58.5445 103.722C59.7333 103.722 60.8111 103.978 61.7667 104.478C62.7222 104.989 63.4667 105.678 64.0111 106.578C64.5556 107.467 64.8223 108.478 64.8223 109.589C64.8223 110.711 64.5556 111.711 64.0111 112.6C63.4667 113.489 62.7222 114.189 61.7667 114.7C60.8111 115.211 59.7445 115.456 58.5445 115.456C57.3445 115.456 56.2667 115.211 55.3222 114.7ZM60.0889 112.411C60.5556 112.144 60.9222 111.767 61.1889 111.278C61.4556 110.789 61.5889 110.222 61.5889 109.589C61.5889 108.956 61.4556 108.389 61.1889 107.9C60.9222 107.411 60.5556 107.033 60.0889 106.767C59.6222 106.5 59.1111 106.367 58.5445 106.367C57.9778 106.367 57.4556 106.5 57 106.767C56.5333 107.033 56.1667 107.411 55.9 107.9C55.6333 108.389 55.5 108.956 55.5 109.589C55.5 110.222 55.6333 110.789 55.9 111.278C56.1667 111.767 56.5333 112.144 57 112.411C57.4667 112.678 57.9778 112.811 58.5445 112.811C59.1111 112.811 59.6222 112.678 60.0889 112.411Z" fill="#FC91F5"/>
<path d="M73.0333 112.233H71.2889V115.233H68.1V103.944H73.2666C74.2889 103.944 75.1778 104.111 75.9222 104.456C76.6778 104.789 77.2555 105.278 77.6666 105.911C78.0778 106.544 78.2778 107.278 78.2778 108.133C78.2778 108.956 78.0889 109.667 77.7 110.267C77.3222 110.878 76.7778 111.356 76.0666 111.689L78.5 115.233H75.0778L73.0333 112.233ZM74.5555 106.889C74.2222 106.6 73.7222 106.456 73.0666 106.456H71.2889V109.767H73.0666C73.7222 109.767 74.2222 109.622 74.5555 109.344C74.8889 109.056 75.0555 108.656 75.0555 108.122C75.0555 107.589 74.8889 107.189 74.5555 106.889Z" fill="#FC91F5"/>
<path d="M83.9 106.478H80.4222V103.944H90.5445V106.478H87.0889V115.233H83.9V106.478Z" fill="#FC91F5"/>
<path d="M100.344 113.044H95.5667L94.6778 115.233H91.4222L96.4111 103.944H99.5556L104.556 115.233H101.233L100.344 113.044ZM99.4111 110.689L97.9556 107.078L96.5 110.689H99.4111Z" fill="#FC91F5"/>
<path d="M39.9444 51.7778C40.6555 51.5778 41.0333 51.0667 41.4889 50.7C44.1333 48.6222 46.9555 46.8222 50.0222 45.4444C52.3666 44.3889 54.7889 43.6778 57.4333 44.0333C60.3 44.4222 61.5 45.9444 61.4889 48.8333C61.4777 51.1 60.7333 53.2111 59.9889 55.3222C59.2666 57.3889 58.7555 59.5111 58.8778 61.7222C58.9444 62.9889 59.6444 63.5 60.9222 63.3889C61.8666 63.3 62.7111 62.9222 63.5111 62.4667C67.0222 60.4444 70 57.7778 72.8 54.8889C74.1444 53.4889 75.4889 52.0889 76.8222 50.6778C78 49.4222 78.7 47.8555 79.6111 46.4222C80.4222 45.1444 81.3 43.9333 82.3444 42.8444C83.5555 41.5778 85.3889 41.5444 86.6555 42.7556C87.6 43.6555 87.6444 45.4667 86.6444 46.6889C85.0666 48.6333 83.7 50.7333 82.4444 52.8889C80.9 55.5333 79.4777 58.2333 78.3555 61.0889C78.0889 61.7555 77.8444 62.4555 77.8889 63.2C77.9777 64.4333 78.7111 64.9889 79.9111 64.7333C81.0666 64.4778 82.1 63.9222 83.0889 63.3111C87.5888 60.5444 91.4888 57.0555 95.1 53.2333C96.1111 52.1556 97.1333 51.0778 98.3444 50.2222C99.1555 49.6555 100.256 49.6444 100.944 50.1555C101.622 50.6555 101.8 51.5889 101.411 52.6111C101.044 53.5555 100.4 54.3222 99.7 55.0333C96.1111 58.6667 92.3 62.0333 88.0666 64.9111C85.7333 66.4889 83.3111 67.9333 80.6777 68.9778C79.6 69.4 78.4777 69.7333 77.2888 69.7889C74.0555 69.9333 71.6555 67.0667 71.8111 64.1C71.8555 63.3556 71.9222 62.6111 72 61.7222C71.2333 62.3333 70.5555 62.8667 69.8889 63.4C67.4 65.3555 64.7777 67.1 61.7555 68.1667C59.5555 68.9333 57.3333 68.9556 55.2222 67.9444C52.8778 66.8222 52.2555 64.6444 52.2333 62.2889C52.2111 60.1222 52.6 58.0111 53.4777 55.9778C54.1222 54.4667 54.6444 52.8889 54.7222 51.2111C54.7666 50.1889 54.5 49.8778 53.4555 49.7555C52.1222 49.6111 50.9778 50.1333 49.8444 50.7C47.4555 51.8889 45.3444 53.4778 43.3666 55.2444C40.8222 57.5111 38.4333 59.9111 36.5333 62.7667C35.9889 63.5778 35.6333 64.4889 35.2222 65.3667C34.8666 66.1222 34.4333 66.8222 33.7555 67.3333C31.6 68.9556 29.2 68.0555 28.7222 65.3889C28.4778 64.0222 28.7555 62.6778 29.1222 61.3667C29.8667 58.7 30.7778 56.0889 31.8444 53.5444C33.1778 50.3444 34.5778 47.1667 36.1333 44.0667C36.8 42.7222 37.4778 41.3778 38.1555 40.0333C38.3778 39.5889 38.3111 39.3778 37.7666 39.3444C35.2889 39.2 32.8222 39.0222 30.3889 38.5222C29.9444 38.4333 29.7778 38.7556 29.6 39.0333C28.2111 41.1111 26.9 43.2444 25.6889 45.4222C23.9889 48.4555 22.5 51.5889 21.2444 54.8222C20.1555 57.6444 19.1 60.5 18.7444 63.5444C18.6667 64.2111 18.6889 64.8889 19 65.5333C19.6 66.8111 19.2 68.3 18.1333 68.9555C16.8667 69.7222 15.1333 69.4111 14.2444 68.2778C13.4222 67.2222 13.2333 65.9889 13.2778 64.7C13.3889 61.6222 14.3 58.7333 15.3444 55.8778C16.3333 53.1667 17.4778 50.5111 18.7333 47.9111C20.3667 44.5222 22.1555 41.2222 24.1 38C24.1889 37.8556 24.2667 37.7 24.3667 37.5667C24.7222 37.0667 24.6889 36.8 24 36.6444C22.6555 36.3444 21.4 35.8222 20.4222 34.8111C19.2889 33.6444 19.0333 32.3 19.7111 31.1111C20.5 29.7 21.7444 29.1778 23.4333 29.5667C24.1222 29.7222 24.7667 30 25.3111 30.4889C25.8667 31 26.4667 31.4333 27.2222 31.6556C27.7222 31.8 28.0111 31.7444 28.3 31.2667C29.5333 29.2333 30.8444 27.2556 32.2666 25.3444C34.4111 22.4889 36.7111 19.7667 39.0778 17.1C40.2444 15.7889 41.4333 14.5222 43.0111 13.6889C44.0444 13.1444 45.0222 13.2889 45.9666 13.9111C46.9444 14.5444 47.3333 15.4333 47.1778 16.5889C47.0222 17.7111 46.5444 18.6556 45.5889 19.2556C43.7666 20.4 42.3666 21.9667 40.9778 23.5556C38.5555 26.3111 36.2666 29.1667 34.1666 32.1778C33.3444 33.3556 33.4111 33.5333 34.8333 33.6667C36.7 33.8333 38.5666 33.9444 40.4222 34.1222C41.1222 34.1889 41.5666 33.9556 41.9 33.3444C43.6 30.2556 45.5333 27.3222 47.5555 24.4444C51.6222 18.6778 56 13.1778 61.5889 8.77778C63.8889 6.96667 66.3111 5.36667 69.2111 4.63333C71.2 4.13333 73.0555 4.34444 74.7 5.7C76.5333 7.21111 76.7111 9.15556 76.3444 11.3111C75.3 17.3333 72.1 22.1778 68.0555 26.5667C65.6555 29.1667 63 31.4556 59.9889 33.3222C57.5222 34.8556 54.9222 36.0889 52.2111 37.1222C50.2333 37.8778 48.2333 38.5222 46.2111 39.1333C45.6889 39.2889 45.4333 39.7111 45.2222 40.1333C43.8333 42.9444 42.5555 45.7889 41.3222 48.6667C40.8444 49.6444 40.2778 50.6111 39.9444 51.7778ZM48.8444 32.7222C49.2778 32.5889 49.5555 32.5222 49.8222 32.4111C53.4444 30.9556 56.8111 29.0556 59.9 26.6556C62.0889 24.9444 64.0111 22.9556 65.8333 20.8778C67.5 18.9778 69 16.9444 70.1111 14.6667C70.6222 13.6222 71.0666 12.5333 71.2 11.3667C71.3111 10.3667 70.8 9.85556 69.7888 9.91111C69.2777 9.93333 68.7889 10.0556 68.3222 10.2889C67.2222 10.8222 66.2333 11.5222 65.3222 12.3333C63.1333 14.2667 61.1333 16.3667 59.2222 18.5667C55.8444 22.4778 52.6777 26.5444 49.8666 30.9C49.5222 31.4333 49.1111 31.9444 48.8444 32.7222Z" fill="#5552E9"/>
<path d="M93.9778 28.4C93.9556 31.2 91.4222 32.6667 89.3889 33.0222C88.3889 33.2 87.5222 32.6222 87.1333 31.6889C86.0445 29.1 86.5333 27.0778 88.5889 25.4667C89.6889 24.6111 91.8111 24.3778 93.0111 25.3445C94.0445 26.1667 94.0889 27.2667 93.9778 28.4Z" fill="#FC91F5"/>
</svg>
