<svg width="40" height="40" viewBox="0 0 40 40" fill="none" xmlns="http://www.w3.org/2000/svg">
<path d="M19.0751 4.40002C19.7126 4.40002 20.3501 4.40002 21.0501 4.40002C21.6251 4.46252 22.1938 4.52502 22.7688 4.65627C30.8563 6.05627 36.5188 13.6313 35.5001 21.7813C34.9938 26.3 32.8251 29.9313 29.1313 32.6063C25.8188 35.025 22.0626 35.9813 17.9251 35.4688C14.8063 35.0875 12.0063 33.8125 9.65005 31.7125C6.91255 29.2938 5.2563 26.3 4.6188 22.7375C4.4938 22.1625 4.42505 21.5938 4.36255 21.0188C4.36255 20.3813 4.36255 19.7438 4.36255 19.0438C4.42505 18.6625 4.42505 18.2813 4.48755 17.9C4.9938 14.525 6.40005 11.5313 8.8188 9.11253C11.1751 6.75627 13.9751 5.23127 17.2876 4.65627C17.9313 4.52502 18.5063 4.46252 19.0751 4.40002ZM12.0126 17.9625C12.0126 18.7875 12.2688 19.4875 12.7751 20.1938C13.2813 20.8313 13.9188 21.2125 14.7501 21.4688V21.5313C14.3063 21.5313 13.7938 21.5313 13.2876 21.5313C13.5438 22.2938 13.9251 22.8688 14.5626 23.3125C15.1376 23.7563 15.8376 24.0125 16.6626 24.075C15.0688 25.2875 13.3501 25.7313 11.4438 25.5375C11.5688 25.6625 11.7001 25.6625 11.7626 25.7313C12.9751 26.4313 14.2438 26.875 15.6438 27.0688C18.0626 27.325 20.2938 26.9438 22.3313 25.6063C25.5126 23.5063 27.0438 20.5125 27.1063 16.7563C27.1063 16.5625 27.1688 16.4375 27.3001 16.3125C27.7438 15.8688 28.1938 15.4188 28.6376 14.9125C28.7001 14.85 28.7001 14.7875 28.7626 14.7188C28.1251 14.9125 27.5501 15.0375 26.9188 15.225V15.1625C27.6188 14.7188 28.0626 14.0813 28.3188 13.3813C27.6813 13.6375 26.9813 13.825 26.3438 14.0813C26.1501 14.1438 26.0251 14.0813 25.9001 13.9563C24.8188 13 23.5438 12.7438 22.2063 13.2563C20.8688 13.7625 20.1063 14.7813 19.9126 16.1875C19.8501 16.5688 19.9126 17.0125 19.9126 17.4C16.9188 17.2063 14.5001 15.9375 12.5938 13.6438C12.1501 14.4688 12.0188 15.3 12.2126 16.2563C12.4063 17.15 12.9126 17.85 13.6126 18.4188L13.5501 18.4813C12.9688 18.2125 12.5188 18.0875 12.0126 17.9625Z" fill="#666666"/>
</svg>
